# AST/ASF file generated using VICON BodyLanguage
# -----------------------------------------------
:version 1.10
:name VICON
:units
  mass 1.0
  length 0.45
  angle deg
:documentation
   .ast/.asf automatically generated from VICON data using
   VICON BodyBuilder and BodyLanguage model FoxedUp or BRILLIANT.MOD
:root
   order TX TY TZ RX RY RZ
   axis XYZ
   position 0 0 0  
   orientation 0 -0 0 
:bonedata
  begin
     id 1 
     name lhipjoint
     direction 0.500677 -0.737119 0.453848 
     length 2.34727 
     axis 0 -0 0  XYZ
  end
  begin
     id 2 
     name lfemur
     direction 0.34202 -0.939693 0  
     length 7.53653  
     axis 0 -0 20  XYZ
    dof rx ry rz
    limits (-160.0 20.0)
           (-70.0 70.0)
           (-60.0 70.0)
  end
  begin
     id 3 
     name ltibia
     direction 0.34202 -0.939693 0   
     length 6.85572   
     axis 0 -0 20   XYZ
    dof rx
    limits (-10.0 170.0)
  end
  begin
     id 4 
     name lfoot
     direction 0.155313 -0.426718 0.890949   
     length 2.18324   
     axis -90 -1.13533e-015 20   XYZ
    dof rx rz
    limits (-45.0 90.0)
           (-70.0 20.0)
  end
  begin
     id 5 
     name ltoes
     direction 1.53474e-011 -4.21647e-011 1   
     length 1.06748   
     axis -90 -1.13533e-015 20   XYZ
    dof rx
    limits (-90.0 20.0)
  end
  begin
     id 6 
     name rhipjoint
     direction -0.632471 -0.659587 0.406111   
     length 2.62319  
     axis 0 -0 0  XYZ 
  end
  begin
     id 7 
     name rfemur
     direction -0.34202 -0.939693 0   
     length 7.21735   
     axis 0 -0 -20   XYZ
    dof rx ry rz
    limits (-160.0 20.0)
           (-70.0 70.0)
           (-70.0 60.0)
  end
  begin
     id 8 
     name rtibia
     direction -0.34202 -0.939693 0   
     length 7.02558   
     axis 0 -0 -20   XYZ
    dof rx
    limits (-10.0 170.0)
 end
 begin
     id 9 
     name rfoot
     direction -0.16057 -0.441164 0.882945   
     length 2.10014  
     axis -90 1.13533e-015 -20   XYZ
    dof rx rz
    limits (-45.0 90.0)
           (-20.0 70.0)
  end
  begin
     id 10 
     name rtoes
     direction -1.53553e-011 -4.2192e-011 1   
     length 1.02554   
     axis -90 1.13533e-015 -20   XYZ
    dof rx
    limits (-90.0 20.0)
  end
  begin
     id 11 
     name lowerback
     direction 0.0401429 0.998861 -0.0258085   
     length 1.80848   
     axis 0 -0 0   XYZ
    dof rx ry rz
    limits (-20.0 45.0)
           (-30.0 30.0)
           (-30.0 30.0)
  end
  begin
     id 12 
     name upperback
     direction -0.0130978 0.999914 -0.000352645   
     length 1.8116   
     axis 0 -0 0   XYZ
    dof rx ry rz
    limits (-20.0 45.0)
           (-30.0 30.0)
           (-30.0 30.0)
  end
  begin
     id 13 
     name thorax
     direction -0.0300198 0.999453 0.0138573   
     length 1.81778   
     axis 0 -0 0   XYZ
    dof rx ry rz
    limits (-20.0 45.0)
           (-30.0 30.0)
           (-30.0 30.0)
  end
  begin
     id 14 
     name lowerneck
     direction -0.0401726 0.999191 -0.00173647   
     length 2.10594   
     axis 0 -0 0   XYZ
    dof rx ry rz
    limits (-20.0 45.0)
           (-30.0 30.0)
           (-30.0 30.0)
  end
  begin
     id 15 
     name upperneck
     direction 0.0119835 0.998501 0.0534085   
     length 2.07325   
     axis 0 -0 0   XYZ
    dof rx ry rz
    limits (-20.0 45.0)
           (-30.0 30.0)
           (-30.0 30.0)
  end
  begin
     id 16
     name head
     direction 0.00628309 0.999826 0.0175921  
     length 2.15096  
     axis 0 -0 0   XYZ
    dof rx ry rz
    limits (-20.0 45.0)
           (-30.0 30.0)
           (-30.0 30.0)
  end
  begin
     id 17 
     name lclavicle
     direction 0.895501 0.429681 -0.115981  
     length 4.18092  
     axis 0 -0 0   XYZ
    dof ry rz
    limits (-20.0 10.0)
           (0.0 20.0)
  end
  begin
     id 18 
     name lhumerus
     direction 1 -4.48961e-011 -3.38433e-028   
     length 5.77237   
     axis 180 -30 -90   XYZ
    dof rx ry rz
    limits (-60.0 90.0)
           (-90.0 90.0)
           (-90.0 90.0)
  end
  begin
     id 19
     name lradius
     direction 1 -4.4901e-011 1.11983e-026   
     length 2.91878   
     axis 180 -30 -90   XYZ
    dof rx
    limits (-10.0 170.0)
  end
  begin
     id 20
     name lwrist
     direction 1 -4.48934e-011 1.88176e-026   
     length 1.45939   
     axis -1.23311e-014 90 90   XYZ
    dof ry
    limits (-180.0 0.0)
 end
  begin
     id 21 
     name lhand
     direction 1 -4.4895e-011 3.76352e-026   
     length 1.06566   
     axis -2.40147e-014 90 90   XYZ
    dof rx rz
    limits (-90.0 90.0)
           (-45.0 45.0)
  end
  begin
     id 22 
     name lfingers
     direction 1 -4.49005e-011 7.52705e-026   
     length 0.859162   
     axis -4.80295e-014 90 90   XYZ
    dof rx
    limits (0.0 90.0)
  end
  begin
     id 23
     name lthumb
     direction 0.707107 -6.34885e-011 0.707107   
     length 1.23359   
     axis -90 45 -9.86935e-015   XYZ
    dof rx rz
    limits (-45.0 45.0)
           (-45.0 45.0)
  end
  begin
     id 24 
     name rclavicle
     direction -0.91006 0.40451 -0.0903492   
     length 4.23293  
     axis 0 -0 0   XYZ 
    dof ry rz
    limits (-10.0 20.0)
           (-20.0 0.0)
  end
  begin
     id 25 
     name rhumerus
     direction -1 -4.4897e-011 1.7415e-027  
     length 5.49854   
     axis 180 30 90   XYZ
    dof rx ry rz
    limits (-90.0 60.0)
           (-90.0 90.0)
           (-90.0 90.0)
  end
  begin
     id 26 
     name rradius
     direction -1 -4.48963e-011 1.21259e-026   
     length 3.1186   
     axis 180 30 90   XYZ
    dof rx
    limits (-10.0 170.0)
  end
  begin
     id 27 
     name rwrist
     direction -1 -4.48967e-011 1.88176e-026   
     length 1.5593   
     axis -1.23311e-014 -90 -90   XYZ
    dof ry
    limits (-180.0 0.0)
  end
  begin
     id 28
     name rhand
     direction -1 -4.4895e-011 3.76352e-026   
     length 0.71207   
     axis -2.40147e-014 -90 -90   XYZ
    dof rx rz
    limits (-90.0 90.0)
           (-45.0 45.0)
  end
  begin
     id 29
     name rfingers
     direction -1 -4.49005e-011 7.52705e-026   
     length 0.574089   
     axis -4.80295e-014 -90 -90   XYZ
    dof rx
    limits (0.0 90.0)
  end
  begin
     id 30
     name rthumb
     direction -0.707107 -6.34982e-011 0.707107   
     length 0.824281   
     axis -90 -45 9.86935e-015   XYZ
    dof rx rz
    limits (-45.0 45.0)
           (-45.0 45.0)
  end
:hierarchy
  begin
    root lhipjoint rhipjoint lowerback
    lhipjoint lfemur
    lfemur ltibia
    ltibia lfoot
    lfoot ltoes
    rhipjoint rfemur
    rfemur rtibia
    rtibia rfoot
    rfoot rtoes
    lowerback upperback
    upperback thorax
    thorax lowerneck lclavicle rclavicle
    lowerneck upperneck
    upperneck head
    lclavicle lhumerus
    lhumerus lradius
    lradius lwrist
    lwrist lhand lthumb
    lhand lfingers
    rclavicle rhumerus
    rhumerus rradius
    rradius rwrist
    rwrist rhand rthumb
    rhand rfingers
  end

#!OML:ASF C:\ViconDB\ViconDB\414\Spring2016\042216\male.ASF
:FULLY-SPECIFIED
:DEGREES
176
root -44.7624 16.9978 13.5288 -166.363 85.4113 -166.953
lowerback -2.82213 -1.69358 4.51707
upperback -0.0561155 -2.39257 -0.63316
thorax 1.31239 -1.1648 -3.27265
lowerneck -1.54377 6.697 -1.64602
upperneck 3.09957 9.08195 -2.19838
head 1.24008 4.4947 -0.265844
rclavicle -3.45311e-015 5.06901e-015
rhumerus -30.4542 -2.46726 -94.3452
rradius 29.2976
rwrist 37.9811
rhand 13.551 -18.061
rfingers 7.12502
rthumb 38.486 -43.7263
lclavicle -3.45311e-015 5.06901e-015
lhumerus -35.9867 14.2909 87.0726
lradius 32.2012
lwrist -15.543
lhand -0.251563 11.0792
lfingers 7.12502
lthumb 25.3494 39.4144
rfemur -10.7886 0.89737 20.3395
rtibia 27.9873
rfoot -19.5358 -0.505826
rtoes -6.18357
lfemur -9.7148 -2.75451 -18.6602
ltibia 28.3254
lfoot -28.1479 8.69589
ltoes -15.4616
177
root -44.7615 16.997 13.5272 -166.781 85.4229 -167.367
lowerback -2.81353 -1.70687 4.4922
upperback -0.0332209 -2.40938 -0.659715
thorax 1.32952 -1.17256 -3.28682
lowerneck -1.4939 6.72037 -1.64751
upperneck 2.99262 9.10711 -2.17809
head 1.19679 4.50927 -0.263469
rclavicle -8.59744e-015 2.98177e-016
rhumerus -30.4127 -2.57983 -94.3706
rradius 29.2142
rwrist 37.6947
rhand 13.4545 -18.1351
rfingers 7.12502
rthumb 38.3949 -43.8257
lclavicle -8.59744e-015 2.98177e-016
lhumerus -35.9587 14.3428 86.9707
lradius 32.1608
lwrist -15.6808
lhand -0.238014 11.1182
lfingers 7.12502
lthumb 25.3624 39.4515
rfemur -10.7747 0.855318 20.2931
rtibia 27.9832
rfoot -19.5633 -0.462987
rtoes -6.22927
lfemur -9.70403 -2.63529 -18.7053
ltibia 28.3247
lfoot -28.1593 8.62959
ltoes -15.4287
178
root -44.7601 16.9966 13.5235 -167.048 85.4172 -167.649
lowerback -2.81822 -1.71561 4.46373
upperback -0.0336965 -2.42046 -0.648835
thorax 1.3323 -1.17823 -3.26014
lowerneck -1.43653 6.70999 -1.59751
upperneck 2.94359 9.09276 -2.27159
head 1.17874 4.50266 -0.302819
rclavicle 5.18013e-014 1.93815e-015
rhumerus -30.4371 -2.5012 -94.3806
rradius 29.1645
rwrist 37.0256
rhand 13.2389 -18.236
rfingers 7.12502
rthumb 38.1914 -43.9829
lclavicle 5.18013e-014 1.93815e-015
lhumerus -35.9227 14.4431 86.9381
lradius 32.0774
lwrist -15.7037
lhand 0.22129 11.0338
lfingers 7.12502
lthumb 25.8023 39.304
rfemur -10.7963 0.797784 20.2548
rtibia 28.0065
rfoot -19.6084 -0.431549
rtoes -6.41306
lfemur -9.63654 -3.67835 -18.8166
ltibia 28.3052
lfoot -28.0539 9.64453
ltoes -15.5063
179
root -44.7586 16.999 13.5188 -167.107 85.4082 -167.743
lowerback -2.82261 -1.72697 4.48862
upperback -0.0414322 -2.43625 -0.66175
thorax 1.3238 -1.18628 -3.28789
lowerneck -1.44375 6.70955 -1.5475
upperneck 2.94123 9.09154 -2.29134
head 1.18262 4.50217 -0.316356
rclavicle -9.0812e-015 1.25731e-014
rhumerus -30.4407 -2.61454 -94.3717
rradius 29.064
rwrist 36.8053
rhand 13.0216 -18.2657
rfingers 7.12502
rthumb 37.9863 -44.0687
lclavicle -9.0812e-015 1.25731e-014
lhumerus -35.93 14.5289 86.8683
lradius 32.0593
lwrist -15.6681
lhand 0.674636 11.0494
lfingers 7.12502
lthumb 26.2364 39.2557
rfemur -10.8404 0.77183 20.2327
rtibia 28.0211
rfoot -19.6075 -0.411417
rtoes -6.42821
lfemur -9.6558 -3.88113 -18.8575
ltibia 28.2989
lfoot -28.018 9.8387
ltoes -15.3703
180
root -44.7563 16.9999 13.514 -167.369 85.4053 -168.051
lowerback -2.84107 -1.73125 4.34675
upperback -0.0540432 -2.43925 -0.55192
thorax 1.33152 -1.18878 -3.09565
lowerneck -1.78552 6.61194 -1.22411
upperneck 3.32758 8.99768 -2.81653
head 1.40588 4.44336 -0.506167
rclavicle 9.14934e-015 -1.13307e-014
rhumerus -30.4429 -2.66581 -94.0987
rradius 28.9496
rwrist 36.4746
rhand 13.0659 -17.979
rfingers 7.12502
rthumb 38.0281 -43.7705
lclavicle 9.14934e-015 -1.13307e-014
lhumerus -35.9705 14.6572 87.0073
lradius 32.0602
lwrist -15.5832
lhand 1.4646 10.5088
lfingers 7.12502
lthumb 26.9924 38.6004
rfemur -10.8867 0.594112 20.1813
rtibia 28.0246
rfoot -19.5695 -0.277089
rtoes -6.58781
lfemur -9.70566 -3.86863 -18.9035
ltibia 28.3032
lfoot -28.0565 9.94906
ltoes -15.818
181
root -44.7534 17.0013 13.5105 -167.898 85.3959 -168.613
lowerback -2.86161 -1.74738 4.37642
upperback -0.0580759 -2.46179 -0.617135
thorax 1.33286 -1.19982 -3.18087
lowerneck -1.90798 6.60101 -0.910792
upperneck 3.45448 8.99071 -3.04368
head 1.49484 4.43671 -0.618112
rclavicle 5.1055e-016 -2.98177e-015
rhumerus -30.4468 -2.72975 -94.1827
rradius 28.7695
rwrist 36.1796
rhand 12.7004 -17.9736
rfingers 7.12502
rthumb 37.6828 -43.8584
lclavicle 5.1055e-016 -2.98177e-015
lhumerus -35.9507 14.6378 86.9134
lradius 31.9904
lwrist -15.4184
lhand 1.71863 10.2066
lfingers 7.12502
lthumb 27.2355 38.2602
rfemur -10.9039 0.538413 20.1229
rtibia 28.025
rfoot -19.6146 -0.258811
rtoes -6.72481
lfemur -9.78158 -3.24454 -18.9418
ltibia 28.3282
lfoot -28.1055 9.38216
ltoes -15.6941
182
root -44.751 17.0026 13.5053 -168.252 85.3582 -169.02
lowerback -2.89715 -1.77207 4.36008
upperback -0.0691778 -2.49569 -0.602964
thorax 1.33973 -1.21687 -3.15927
lowerneck -1.96887 6.58997 -0.896078
upperneck 3.51744 8.98036 -3.06741
head 1.52739 4.4298 -0.624461
rclavicle 2.87384e-015 -8.00108e-015
rhumerus -30.4046 -2.85714 -94.0879
rradius 28.569
rwrist 35.7954
rhand 12.7843 -18.086
rfingers 7.12502
rthumb 37.7622 -43.9495
lclavicle 2.87384e-015 -8.00108e-015
lhumerus -35.9561 14.7282 86.9273
lradius 31.9688
lwrist -15.3969
lhand 0.838714 10.757
lfingers 7.12502
lthumb 26.3935 38.9398
rfemur -10.9505 0.412844 20.0708
rtibia 28.0271
rfoot -19.6682 -0.187849
rtoes -6.7609
lfemur -9.84876 -3.11601 -18.9861
ltibia 28.3548
lfoot -28.1593 9.23784
ltoes -15.5979
183
root -44.7471 17.0017 13.5004 -168.608 85.3365 -169.376
lowerback -2.8557 -1.78396 4.42042
upperback -0.088993 -2.51038 -0.65994
thorax 1.2897 -1.22535 -3.25024
lowerneck -1.86346 6.62579 -0.93781
upperneck 3.42487 9.01612 -2.91541
head 1.46977 4.45171 -0.576446
rclavicle -3.41747e-014 -1.06847e-014
rhumerus -30.4964 -2.94689 -94.0674
rradius 28.4517
rwrist 35.9561
rhand 13.2596 -17.9738
rfingers 7.12502
rthumb 38.2109 -43.7154
lclavicle -3.41747e-014 -1.06847e-014
lhumerus -35.9973 14.618 86.8919
lradius 31.9541
lwrist -15.2601
lhand 0.284439 11.058
lfingers 7.12502
lthumb 25.8628 39.3193
rfemur -10.9373 0.258299 20.0216
rtibia 28.0349
rfoot -19.7528 -0.0841963
rtoes -6.86539
lfemur -9.83626 -3.21166 -19.0547
ltibia 28.3883
lfoot -28.1878 9.37686
ltoes -15.3993
184
root -44.7427 17.0027 13.4957 -168.561 85.3318 -169.353
lowerback -2.85962 -1.77894 4.4474
upperback -0.0913732 -2.50451 -0.675178
thorax 1.28814 -1.22231 -3.28098
lowerneck -1.74067 6.65672 -1.092
upperneck 3.25836 9.04278 -2.69265
head 1.3764 4.46993 -0.491786
rclavicle -1.11793e-014 -7.45443e-015
rhumerus -30.4884 -3.1248 -94.0051
rradius 28.2633
rwrist 35.9588
rhand 13.4253 -17.7598
rfingers 7.12502
rthumb 38.3674 -43.4581
lclavicle -1.11793e-014 -7.45443e-015
lhumerus -35.9763 14.5859 86.8913
lradius 31.9074
lwrist -15.1689
lhand 0.164601 11.019
lfingers 7.12502
lthumb 25.748 39.297
rfemur -10.9467 0.122413 20.0001
rtibia 28.0322
rfoot -19.8027 0.0302583
rtoes -7.08184
lfemur -9.852 -3.18537 -19.0814
ltibia 28.4177
lfoot -28.2292 9.41119
ltoes -15.1101
185
root -44.7382 17.0022 13.493 -168.379 85.3164 -169.223
lowerback -2.86854 -1.77164 4.41926
upperback -0.117125 -2.49391 -0.649597
thorax 1.2699 -1.21804 -3.23824
lowerneck -1.76792 6.63295 -1.07925
upperneck 3.27766 9.01134 -2.68301
head 1.38704 4.45393 -0.490056
rclavicle -2.04057e-014 -7.95139e-016
rhumerus -30.4658 -3.27074 -93.9026
rradius 28.0028
rwrist 35.849
rhand 13.2973 -17.8816
rfingers 7.12502
rthumb 38.2466 -43.6133
lclavicle -2.04057e-014 -7.95139e-016
lhumerus -35.9878 14.5765 86.9306
lradius 31.8573
lwrist -15.2475
lhand -0.00882739 10.9274
lfingers 7.12502
lthumb 25.5819 39.2294
rfemur -10.9843 0.195671 20.0124
rtibia 28.0392
rfoot -19.8513 -0.0611693
rtoes -6.851
lfemur -9.91052 -3.13075 -19.089
ltibia 28.4416
lfoot -28.2888 9.43188
ltoes -15.2489
186
root -44.7348 17.0058 13.4882 -168.605 85.2914 -169.545
lowerback -2.89772 -1.76462 4.40393
upperback -0.157693 -2.48435 -0.649614
thorax 1.24596 -1.21455 -3.22953
lowerneck -1.73299 6.62321 -1.16087
upperneck 3.21683 8.99257 -2.56876
head 1.35156 4.44639 -0.44547
rclavicle 1.95162e-014 -9.98893e-015
rhumerus -30.5119 -3.18428 -93.895
rradius 27.8514
rwrist 35.5767
rhand 13.4701 -17.9865
rfingers 7.12502
rthumb 38.4097 -43.6731
lclavicle 1.95162e-014 -9.98893e-015
lhumerus -35.9882 14.6171 86.936
lradius 31.7853
lwrist -15.3682
lhand -0.112608 10.7527
lfingers 7.12502
lthumb 25.4825 39.0689
rfemur -11.073 0.18277 19.9707
rtibia 28.0268
rfoot -19.8501 -0.0801554
rtoes -7.10581
lfemur -10.0188 -3.28902 -19.1356
ltibia 28.4686
lfoot -28.3441 9.51552
ltoes -14.9791
187
root -44.7291 17.0075 13.4888 -168.61 85.3285 -169.603
lowerback -2.91775 -1.73756 4.35922
upperback -0.164738 -2.44726 -0.675498
thorax 1.25392 -1.19616 -3.23058
lowerneck -1.76799 6.616 -1.04461
upperneck 3.21767 8.98033 -2.58757
head 1.36432 4.44066 -0.468445
rclavicle 1.1684e-014 1.54058e-015
rhumerus -30.6767 -2.81032 -94.013
rradius 27.9598
rwrist 35.137
rhand 15.2356 -17.7208
rfingers 7.12502
rthumb 40.0734 -42.9247
lclavicle 1.1684e-014 1.54058e-015
lhumerus -36.0176 14.4867 86.9393
lradius 31.8272
lwrist -15.3993
lhand -0.480204 10.7516
lfingers 7.12502
lthumb 25.1303 39.1176
rfemur -11.1001 0.484638 19.9753
rtibia 28.0285
rfoot -19.8826 -0.338767
rtoes -7.04061
lfemur -10.0581 -3.28626 -19.1529
ltibia 28.4828
lfoot -28.3871 9.55608
ltoes -14.9501
188
root -44.7248 17.0089 13.4861 -168.64 85.3287 -169.669
lowerback -2.91112 -1.73472 4.32154
upperback -0.15581 -2.44247 -0.651337
thorax 1.26243 -1.19367 -3.18435
lowerneck -1.78428 6.62234 -1.12911
upperneck 3.14168 8.9851 -2.50641
head 1.33467 4.44404 -0.431447
rclavicle 1.95353e-014 -5.46658e-016
rhumerus -30.6021 -3.18319 -93.7824
rradius 27.7172
rwrist 35.5792
rhand 15.6097 -17.4038
rfingers 7.12502
rthumb 40.4252 -42.5002
lclavicle 1.95353e-014 -5.46658e-016
lhumerus -35.9843 14.5632 86.9769
lradius 31.8106
lwrist -15.5538
lhand -0.933895 10.862
lfingers 7.12502
lthumb 24.6956 39.2883
rfemur -11.1172 0.559479 19.9689
rtibia 28.0218
rfoot -19.8999 -0.451355
rtoes -7.24574
lfemur -10.0782 -3.46075 -19.1838
ltibia 28.4944
lfoot -28.4103 9.74604
ltoes -14.9774
189
root -44.722 17.0095 13.4827 -168.807 85.3177 -169.873
lowerback -2.84468 -1.75245 4.26964
upperback -0.189251 -2.46109 -0.609142
thorax 1.19319 -1.20547 -3.1091
lowerneck -1.38876 6.73889 -1.74605
upperneck 2.63102 9.1086 -1.92253
head 1.0475 4.5173 -0.184004
rclavicle -1.6489e-014 4.29872e-015
rhumerus -30.593 -3.27196 -93.6611
rradius 27.5897
rwrist 35.4609
rhand 15.8407 -17.57
rfingers 7.12502
rthumb 40.6424 -42.599
lclavicle -1.6489e-014 4.29872e-015
lhumerus -36.0444 14.6131 87.0629
lradius 31.8635
lwrist -15.619
lhand -1.37587 11.1797
lfingers 7.12502
lthumb 24.2719 39.6633
rfemur -11.1392 0.569628 19.9462
rtibia 28.0138
rfoot -19.9129 -0.521299
rtoes -7.38757
lfemur -10.1069 -3.57965 -19.2294
ltibia 28.5108
lfoot -28.4107 9.89185
ltoes -14.9982
190
root -44.7191 17.0094 13.4793 -168.761 85.2882 -169.864
lowerback -2.81529 -1.749 4.32137
upperback -0.177169 -2.45661 -0.654343
thorax 1.18538 -1.20297 -3.18371
lowerneck -1.37795 6.75803 -1.72271
upperneck 2.47454 9.12539 -1.85564
head 0.994387 4.5284 -0.171542
rclavicle 2.70452e-014 -3.72721e-015
rhumerus -30.564 -3.40371 -93.6581
rradius 27.4592
rwrist 35.3931
rhand 16.2001 -17.34
rfingers 7.12502
rthumb 40.98 -42.2627
lclavicle 2.70452e-014 -3.72721e-015
lhumerus -36.0122 14.5803 87.0332
lradius 31.9329
lwrist -15.5274
lhand -1.23957 11.1587
lfingers 7.12502
lthumb 24.4026 39.6247
rfemur -11.1446 0.807925 19.9534
rtibia 27.999
rfoot -19.948 -0.763616
rtoes -7.26714
lfemur -10.1526 -3.59324 -19.2398
ltibia 28.5421
lfoot -28.4432 9.89537
ltoes -14.9008
